<?xml version="1.0" encoding="UTF-8"?>
<svg
    role="logo"
    class="h-96 fill-transparent stroke-2 stroke-white"
    xmlns="http://www.w3.org/2000/svg"
    viewBox="0 0 506.97 338"
    fill="transparent" stroke-width="2" stroke="white"
>
    <g id="FI">
        <path
            d="M237.04,162.56c-2.03,4.39-3.52,11.61-3.87,14.93-.79,7.43-.81,14.99-.57,22.47.06,1.8-.42,1.76.71,3.53.4-.16,3.33.09,3.73-.07-.07,1.59-.15,4.55-.24,6.46h-33.31V0h33.39c0,1.81,0,3.42,0,5.04.06,50.66.12,101.33.14,151.99"
        />
        <path
            d="M74.81,185.58c.46,8.09.07,16.2.07,24.4h27.66v-88.34h70.22v-37.35h-69.95v-47.26h79.96V.25h-114.39c0,7.52,0,14.48,0,21.44,0,44,0,137.65,0,137.65,7.42,6.96,5.94,17.5,6.43,26.24Z"
        />
    </g>
    <g id="Share">
        <path
            d="M448.89,248.13c0,7.3-.02,13.74,0,20.19.04,10.83.03,21.66.19,32.48.18,12.76,7.6,20.05,20.36,20.23,13.41.19,20.91-6.56,21.41-19.55.23-5.79.04-11.6.04-17.75h15.83c.14,11.75,1.38,23.54-3.22,34.84-5.46,13.43-16.43,18.63-30,19.36-4.77.25-9.7-.13-14.38-1.1-13.97-2.89-23.07-13.01-25.13-27.56-.58-4.11-.88-8.29-.89-12.44-.07-36.49-.08-72.97.02-109.46.01-4.47.36-9.03,1.3-13.39,3.67-16.99,14.74-25.71,33.22-26.61,24.06-1.16,39.05,12.79,39.23,36.82.16,21.14.03,42.28.03,63.94h-58ZM490.99,231.15c0-16.61.39-32.72-.13-48.81-.4-12.37-8.4-18.49-22.03-18.13-12.4.32-19.74,7.42-19.91,19.51-.17,12.14-.14,24.28-.19,36.42-.01,3.6,0,7.21,0,11.01h42.27Z"
        />
        <path
            d="M363.06,333.41h-15.23v-180.9c4.25-1.37,7-.61,8.09,4.49.99,4.61,2.78,9.05,4.29,13.78,2.42-4.79,4.4-9.36,6.92-13.61,9.61-16.24,32.78-10.43,38.28,3.14,2.04,5.02,3.63,10.48,4.05,15.84.67,8.42.18,16.93.18,25.72h-14.91c0-6.55.13-12.99-.06-19.43-.09-3.13-.38-6.36-1.26-9.34-2.7-9.17-11.81-11.6-18.74-5-6.86,6.53-9.6,15.07-10.69,24.16-.61,5.11-.88,10.29-.88,15.44-.07,40-.04,79.99-.04,119.99,0,1.81,0,3.61,0,5.72Z"
        />
        <path
            d="M237.93,164.29c10.84-18.52,36.09-22.7,52.91-11.16,9.93,6.81,13.54,17.15,13.93,28.52.51,14.98.27,29.98.28,44.98.03,33.65,0,67.31,0,100.97,0,1.81,0,3.62,0,5.43-4.71,1.64-7.48.78-8.57-4.29-.83-3.87-2.45-7.58-3.89-11.88-1.93,2.87-3.48,5.38-5.23,7.74-8.4,11.37-19.5,15.57-33.32,12.34-12.85-3-20.31-11.9-21.13-24.21-1.22-18.52-1.81-37.32.07-55.72,1.81-17.74,12.65-25.32,30.63-25.62,8.3-.14,16.61-.02,24.64-.02.48-.61.85-.86.85-1.11-.06-16.48.28-32.98-.38-49.43-.42-10.45-8.68-16.58-20.14-16.45-11.06.12-17.96,5.96-18.73,16.58-.49,6.76-.09,13.59-.09,20.81h-15.75s-1.56-28.14,3.91-37.48ZM289.39,248.21c-9.05,0-17.7-.1-26.33.03-8.93.13-14.36,3.74-14.99,12.72-1.06,15.2-1.62,30.61-.34,45.75,1.16,13.68,14.09,18.95,25.9,11.58,10.06-6.27,15.93-15.45,16.06-27.62.09-8.31-.21-16.63-.28-24.95-.05-5.62,0-11.24,0-17.52Z"
        />
        <path
            d="M191.05,333.51h-14.97v-83.13h-44.17v83.06h-15.16v-181.3h15.18v80.25h43.82v-80.12h15.3v181.24Z"
        />
        <path
            d="M73.26,210.07h-15.53c0-7.53.08-14.96-.04-22.39-.05-3.14-.2-6.36-.9-9.4-1.65-7.14-6.21-11.71-13.48-13.04-3.22-.59-6.65-.84-9.88-.43-10.91,1.38-16.58,7.43-17.29,18.44-.73,11.31,1.51,21.5,9.44,30.51,12.76,14.49,24.73,29.67,37.05,44.54,14.24,17.18,16,36.91,10.77,57.5-3.55,13.97-15.27,21.53-32.05,22.14-4.79.17-9.69-.15-14.39-1.05-16.42-3.11-25.13-13.88-26.41-32.75-.56-8.29-.25-16.64-.53-24.96-.11-3.34,1.2-4.41,4.4-4.21,3.62.22,7.26.05,11.65.05,0,8.17-.06,15.94.02,23.72.08,7.79,1.46,15.27,9.11,19.22,8.67,4.48,17.71,4.42,26.31-.38,5.32-2.97,7.78-8.11,8.3-14.06,1.06-12.25-1.55-23.24-9.85-32.94-12.44-14.55-24.08-29.79-36.46-44.39C.26,210.62-2.02,192.7,1.77,173.65c3.36-16.86,15.32-25.9,33.44-26.25,13.19-.26,26.03,5.66,33.01,14.52,4.49,5.7,4.88,9.15,5.03,48.16Z"
        />
    </g>
    <g id="logo">
        <path
            d="M374.51,146.61c24.8-42.52,49.56-84.98,74.32-127.44-.21-.23-.42-.47-.62-.7-3.24,1.81-6.5,3.59-9.71,5.45-31.42,18.12-62.81,36.3-94.29,54.32-3.4,1.95-4.41,3.76-3.61,7.87,3.93,20.25,7.39,40.58,10.99,60.89.14.79.1,1.62.15,2.63-1.75.29-3.35.55-5.36.88-.23,2.81-.46,5.58-.69,8.35-.22.05-.44.09-.66.14-1.36-7.29-2.76-14.58-4.06-21.89-3.08-17.36-5.98-34.76-9.32-52.07-.51-2.64-2.46-5.48-4.56-7.27-25.36-21.59-50.9-42.96-76.31-64.5-2.49-2.11-6.81-3.74-5.39-8.08,1.58-4.86,6.2-2.9,9.55-2.92,37.97-.28,75.95-.4,113.93-.58,29.98-.15,59.96-.37,89.94-.39,2.23,0,5.55.79,6.39,2.3.86,1.55-.18,4.76-1.31,6.7-24.47,42.17-49.19,84.19-73.5,126.44-3.6,6.25-7.18,10.98-15.89,9.86ZM261.05,10.4c1.94,2.05,2.82,3.17,3.89,4.07,22.4,18.91,44.87,37.74,67.18,56.76,2.77,2.36,4.68,1.91,7.45.3,33.68-19.55,67.43-38.99,101.14-58.48,1.14-.66,2.14-1.56,3.6-2.65h-183.25Z"
        />
    </g>
</svg>